# xmcd CD database file
#
# Track frame offsets:
#	150
#	12825
#	34425
#	44475
#	54900
#	65775
#	80475
#	97125
#	108600
#	130350
#	148875
#	159825
#	177300
#	188025
#	203400
#	217125
#	234150
#	249900
#	265875
#	279600
#	293775
#	309075
#	324525
#
# Disc length: 4471 seconds
#
# Revision: 0
# Processed by: cddbd v1.5.1PL0 Copyright (c) Steve Scherf et al.
# Submitted via: CDex 1.51
#
DISCID=54117517
DTITLE=Tony Ashby - We're Really Quite Famous You Know
DYEAR=1900
DGENRE=Jazz
TTITLE0=Black Bottom Stop
TTITLE1=Sister Kate
TTITLE2=Hello Dolly
TTITLE3=On The Sunny Side Of The Street
TTITLE4=Blue Moon
TTITLE5=Come Back Sweet Papa
TTITLE6=Melancholoy Blues
TTITLE7=I've Found A New Baby
TTITLE8=Misty
TTITLE9=If I Had You
TTITLE10=In The Good Old Summertime
TTITLE11=Meet Me Tonight In Dreamland
TTITLE12=Tenderly
TTITLE13=Glen Island Special
TTITLE14=Who's Sorry Now
TTITLE15=Woodchopper's Ball
TTITLE16=Dimar Blue
TTITLE17=Sauerkraut Strut
TTITLE18=There'll Be Some Changes Made
TTITLE19=Rockin' Chair
TTITLE20=Revolutionary Blues
TTITLE21=Two Dueces
TTITLE22=This LIttle Light Of Mine
EXTD=
EXTT0=
EXTT1=
EXTT2=
EXTT3=
EXTT4=
EXTT5=
EXTT6=
EXTT7=
EXTT8=
EXTT9=
EXTT10=
EXTT11=
EXTT12=
EXTT13=
EXTT14=
EXTT15=
EXTT16=
EXTT17=
EXTT18=
EXTT19=
EXTT20=
EXTT21=
EXTT22=
PLAYORDER=
